HIERARCHY
ROOT Hips
{
  OFFSET 48.6694 95.778 16.5745
  CHANNELS 6 Xposition Yposition Zposition Zrotation Xrotation Yrotation
  JOINT spine
  {
    OFFSET 0 7.96568 0.458067
    CHANNELS 3 Zrotation Xrotation Yrotation
    JOINT spine1
    {
      OFFSET 0 10.2431 0
      CHANNELS 3 Zrotation Xrotation Yrotation
      JOINT spine2
      {
        OFFSET 0 9.81475 0
        CHANNELS 3 Zrotation Xrotation Yrotation
        JOINT Neck
        {
          OFFSET 0 25.1986 1.20138
          CHANNELS 3 Zrotation Xrotation Yrotation
          JOINT Head
          {
            OFFSET 0 7.61315 0
            CHANNELS 3 Zrotation Xrotation Yrotation
            End Site
            {
              OFFSET 0 18.4281 -6.07733
            }
          }
        }
        JOINT RightShoulder
        {
          OFFSET -4.1327 10.5992 -0.575451
          CHANNELS 3 Zrotation Xrotation Yrotation
          JOINT RightArm
          {
            OFFSET 0 13.9018 0
            CHANNELS 3 Zrotation Xrotation Yrotation
            JOINT RightArmRoll
            {
              OFFSET 0 7.01788 0
              CHANNELS 3 Zrotation Xrotation Yrotation
              JOINT RightForeArm
              {
                OFFSET 0 20.4406 0
                CHANNELS 3 Zrotation Xrotation Yrotation
                JOINT RightForeArmRoll
                {
                  OFFSET 0 7.87515 0
                  CHANNELS 3 Zrotation Xrotation Yrotation
                  JOINT RightHand
                  {
                    OFFSET 0 15.8037 0
                    CHANNELS 3 Zrotation Xrotation Yrotation
                    End Site
                    {
                      OFFSET 0 0 0
                    }
                  }
                }
              }
            }
          }
        }
        JOINT LeftShoulder
        {
          OFFSET 4.1327 10.5992 -0.575451
          CHANNELS 3 Zrotation Xrotation Yrotation
          JOINT LeftArm
          {
            OFFSET 0 13.9018 0
            CHANNELS 3 Zrotation Xrotation Yrotation
            JOINT LeftArmRoll
            {
              OFFSET 0 7.01788 0
              CHANNELS 3 Zrotation Xrotation Yrotation
              JOINT LeftForeArm
              {
                OFFSET 0 20.4406 0
                CHANNELS 3 Zrotation Xrotation Yrotation
                JOINT LeftForeArmRoll
                {
                  OFFSET 0 7.87515 0
                  CHANNELS 3 Zrotation Xrotation Yrotation
                  JOINT LeftHand
                  {
                    OFFSET 0 15.8037 0
                    CHANNELS 3 Zrotation Xrotation Yrotation
                    End Site
                    {
                      OFFSET 0 0 0
                    }
                  }
                }
              }
            }
          }
        }
      }
    }
  }
  JOINT RightUpLeg
  {
    OFFSET -7.06048 -1.2947 -1.0861
    CHANNELS 3 Zrotation Xrotation Yrotation
    JOINT RightUpLegRoll
    {
      OFFSET 0 18.5308 0
      CHANNELS 3 Zrotation Xrotation Yrotation
      JOINT RightLeg
      {
        OFFSET 0 -22.9476 0
        CHANNELS 3 Zrotation Xrotation Yrotation
        JOINT RightLegRoll
        {
          OFFSET 0 23.0226 0
          CHANNELS 3 Zrotation Xrotation Yrotation
          JOINT RightFoot
          {
            OFFSET 0 19.1625 0
            CHANNELS 3 Zrotation Xrotation Yrotation
            JOINT RightToeBase
            {
              OFFSET 0 16.0188 0
              CHANNELS 3 Zrotation Xrotation Yrotation
              End Site
              {
                OFFSET 0.00678979 7.75782 -0.894206
              }
            }
          }
        }
      }
    }
  }
  JOINT LeftUpLeg
  {
    OFFSET 7.06048 -1.2947 -1.0861
    CHANNELS 3 Zrotation Xrotation Yrotation
    JOINT LeftUpLegRoll
    {
      OFFSET 0 18.5309 0
      CHANNELS 3 Zrotation Xrotation Yrotation
      JOINT LeftLeg
      {
        OFFSET 0 22.9475 0
        CHANNELS 3 Zrotation Xrotation Yrotation
        JOINT LeftLegRoll
        {
          OFFSET 0 23.2355 0
          CHANNELS 3 Zrotation Xrotation Yrotation
          JOINT LeftFoot
          {
            OFFSET 0 18.9496 0
            CHANNELS 3 Zrotation Xrotation Yrotation
            JOINT LeftToeBase
            {
              OFFSET 0 16.0188 0
              CHANNELS 3 Zrotation Xrotation Yrotation
              End Site
              {
                OFFSET -0.0304289 7.75782 -0.894206
              }
            }
          }
        }
      }
    }
  }
}
MOTION
Frames: 11
Frame Time: 0.00208333
49.3532 95.6399 13.15 -1.13056 -1.57278 0.840308 0.373546 -1.80266 -0.00244006 0.758371 0.397259 -0.0426119 0.759493 2.04225 -0.0552645 0.802607 18.3587 -1.63957 0.0396823 2.89149 -1.39899 72.5874 2.25574 -0.584531 103.55 16.1496 22.0462 -1.37935e-005 6.03192e-009 -4.16964e-007 2.87856 1.10758 -0.0380123 -6.96439e-006 -8.15935e-007 -3 8.02991 -4.95139 0.697651 -69.9724 1.46026 0.618876 -109.718 15.7389 -19.9639 1.51368e-006 3.40017e-006 7.37527e-006 -0.124214 2.89969 -0.44072 6.10999e-006 -1.47028e-006 3 -8.03023 -4.95138 -0.697655 176.757 -2.47308 -2.27604 180 7.01529e-015 178.846 177.402 5.5877 179.605 -7.89379e-007 1.71256e-006 0.0911836 -19.2086 68.5006 19.9562 8.16792 25.7964 -2.72624 -173.613 0.117169 0.0421955 -1.0752e-005 -1.98656e-005 -1.16226 -1.85756 -9.17191 0.122877 -6.63714e-007 -6.38419e-006 -0.225476 20.9304 70.3864 -21.7624 -8.1416 25.3541 3.32453 
49.36 95.639 13.1279 -1.12547 -1.55242 0.833841 0.372919 -1.80398 -0.00404664 0.756008 0.394598 -0.046445 0.757144 2.03959 -0.0590634 0.799498 18.3785 -1.63571 0.0398515 2.8628 -1.39562 72.6004 2.27003 -0.579739 103.537 16.1586 22.0539 -1.37935e-005 6.03192e-009 -4.16964e-007 2.87159 1.0948 -0.0372401 -6.96439e-006 -8.15935e-007 -3 8.02991 -4.95139 0.697651 -69.9711 1.45104 0.623185 -109.718 15.7295 -19.9531 1.51368e-006 3.40017e-006 7.37527e-006 -0.139058 2.89065 -0.440029 6.10999e-006 -1.47028e-006 3 -8.03023 -4.95138 -0.697655 176.748 -2.38813 -2.26485 180 7.01529e-015 178.846 177.396 5.70035 179.605 -7.89379e-007 1.71256e-006 0.0935007 -19.2483 68.5492 19.9992 8.1678 25.7946 -2.72865 -173.629 0.20762 0.061316 -1.0752e-005 -1.98656e-005 -1.16232 -1.8387 -9.28834 0.125446 -6.63714e-007 -6.38419e-006 -0.228534 20.9695 70.4252 -21.8049 -8.14178 25.3568 3.32106 
49.3577 95.6397 13.1331 -1.12032 -1.53265 0.826986 0.372309 -1.80543 -0.00566932 0.753635 0.391701 -0.0503184 0.754783 2.03669 -0.0629026 0.795339 18.4006 -1.63155 0.0410363 2.83333 -1.39216 72.6136 2.28532 -0.574519 103.524 16.1674 22.0627 -1.37935e-005 6.03192e-009 -4.16964e-007 2.86391 1.08075 -0.0363842 -6.96439e-006 -8.15935e-007 -3 8.02991 -4.95139 0.697651 -69.9714 1.44139 0.627899 -109.716 15.7205 -19.9429 1.51368e-006 3.40017e-006 7.37527e-006 -0.154071 2.87985 -0.439344 6.10999e-006 -1.47028e-006 3 -8.03023 -4.95138 -0.697655 176.738 -2.30545 -2.25391 180 7.01529e-015 178.846 177.39 5.81032 179.605 -7.89379e-007 1.71256e-006 0.0957287 -19.2877 68.5972 20.0418 8.16767 25.7927 -2.73124 -173.645 0.296741 0.0815046 -1.0752e-005 -1.98656e-005 -1.1624 -1.81885 -9.40359 0.128112 -6.63714e-007 -6.38419e-006 -0.231566 21.0088 70.464 -21.8476 -8.14195 25.3593 3.31773 
49.3536 95.6413 13.1223 -1.1151 -1.51328 0.819859 0.371712 -1.80695 -0.00730325 0.751255 0.38864 -0.05422 0.752415 2.03363 -0.0667699 0.790443 18.4243 -1.62719 0.0429332 2.80331 -1.38863 72.627 2.30131 -0.568999 103.51 16.176 22.0722 -1.37935e-005 6.03193e-009 -4.16964e-007 2.85573 1.0658 -0.0354697 -6.96439e-006 -8.15935e-007 -3 8.02991 -4.95139 0.697651 -69.9727 1.43144 0.632897 -109.712 15.7117 -19.9332 1.51368e-006 3.40017e-006 7.37527e-006 -0.169201 2.86782 -0.438663 6.10999e-006 -1.47028e-006 3 -8.03023 -4.95138 -0.697655 176.729 -2.22434 -2.24313 180 7.01529e-015 178.846 177.384 5.91838 179.606 -7.89379e-007 1.71256e-006 0.0978945 -19.3269 68.6447 20.0843 8.16752 25.7906 -2.73395 -173.662 0.384931 0.102441 -1.0752e-005 -1.98656e-005 -1.16249 -1.79832 -9.51801 0.130846 -6.63714e-007 -6.38419e-006 -0.23458 21.0484 70.5027 -21.8905 -8.14211 25.3617 3.3145 
49.3589 95.6375 13.1228 -1.10986 -1.49416 0.812576 0.371121 -1.80852 -0.00894363 0.748871 0.385484 -0.0581377 0.750042 2.03048 -0.0706533 0.785124 18.449 -1.6227 0.0452388 2.77297 -1.38507 72.6405 2.31769 -0.563308 103.496 16.1845 22.0821 -1.37935e-005 6.03193e-009 -4.16964e-007 2.84725 1.05034 -0.0345217 -6.96439e-006 -8.15935e-007 -3 8.02991 -4.95139 0.697651 -69.9747 1.42132 0.638056 -109.707 15.7032 -19.9238 1.51368e-006 3.40017e-006 7.37527e-006 -0.184398 2.85508 -0.437984 6.10999e-006 -1.47028e-006 3 -8.03023 -4.95138 -0.697655 176.72 -2.14414 -2.23244 180 7.01529e-015 178.846 177.378 6.02536 179.606 -7.89379e-007 1.71256e-006 0.100025 -19.3662 68.692 20.1267 8.16738 25.7885 -2.73675 -173.678 0.47259 0.123805 -1.0752e-005 -1.98656e-005 -1.1626 -1.7774 -9.63196 0.13362 -6.63714e-007 -6.38419e-006 -0.237583 21.0882 70.5414 -21.9336 -8.14227 25.3641 3.31133 
49.3589 95.6317 13.1152 -1.10461 -1.47509 0.805255 0.370533 -1.81011 -0.0105856 0.746486 0.382304 -0.0620594 0.747667 2.0273 -0.0745407 0.779697 18.4739 -1.61819 0.0476494 2.74255 -1.38149 72.654 2.33418 -0.557574 103.481 16.193 22.0921 -1.37935e-005 6.03193e-009 -4.16964e-007 2.83871 1.03475 -0.0335654 -6.96439e-006 -8.15935e-007 -3 8.02991 -4.95139 0.697651 -69.9768 1.41117 0.643257 -109.702 15.6947 -19.9144 1.51368e-006 3.40017e-006 7.37527e-006 -0.199612 2.84217 -0.437306 6.10999e-006 -1.47028e-006 3 -8.03023 -4.95138 -0.697655 176.711 -2.06417 -2.22179 180 7.01529e-015 178.846 177.372 6.13206 179.607 -7.89379e-007 1.71256e-006 0.102146 -19.4056 68.7391 20.1693 8.16723 25.7864 -2.73956 -173.695 0.560115 0.145277 -1.0752e-005 -1.98656e-005 -1.16271 -1.75636 -9.7458 0.136406 -6.63714e-007 -6.38419e-006 -0.240584 21.1281 70.5801 -21.9768 -8.14243 25.3665 3.30818 
49.3585 95.6321 13.113 -1.09936 -1.45591 0.798012 0.369941 -1.81167 -0.0122244 0.744102 0.379172 -0.065973 0.745294 2.02417 -0.07842 0.774475 18.4984 -1.61373 0.0498613 2.7123 -1.37794 72.6674 2.35046 -0.551926 103.467 16.2016 22.1019 -1.37935e-005 6.03192e-009 -4.16964e-007 2.83032 1.01942 -0.0326258 -6.96439e-006 -8.15935e-007 -3 8.02991 -4.95139 0.697651 -69.9787 1.40109 0.648376 -109.698 15.6861 -19.905 1.51368e-006 3.40017e-006 7.37527e-006 -0.214792 2.8296 -0.436626 6.10999e-006 -1.47028e-006 3 -8.03023 -4.95138 -0.697655 176.702 -1.98374 -2.21109 180 7.01529e-015 178.846 177.366 6.23931 179.607 -7.89379e-007 1.71256e-006 0.104285 -19.4453 68.7864 20.2121 8.16709 25.7844 -2.74233 -173.712 0.647906 0.166537 -1.0752e-005 -1.98656e-005 -1.16282 -1.73551 -9.85986 0.139175 -6.63714e-007 -6.38419e-006 -0.24359 21.1682 70.6187 -22.0203 -8.14259 25.3689 3.30499 
49.3688 95.6241 13.1082 -1.09414 -1.43643 0.790964 0.369339 -1.81317 -0.0138551 0.741722 0.376158 -0.0698665 0.742926 2.02115 -0.0822792 0.769773 18.5217 -1.60942 0.0515707 2.68243 -1.37444 72.6807 2.36625 -0.546491 103.454 16.2102 22.1112 -1.37935e-005 6.03192e-009 -4.16964e-007 2.82228 1.00472 -0.0317281 -6.96439e-006 -8.15935e-007 -3 8.02991 -4.95139 0.697651 -69.9797 1.39123 0.653293 -109.695 15.6772 -19.8951 1.51368e-006 3.40017e-006 7.37527e-006 -0.229888 2.81792 -0.435944 6.10999e-006 -1.47028e-006 3 -8.03023 -4.95138 -0.697655 176.693 -1.90217 -2.20029 180 7.01529e-015 178.846 177.36 6.34792 179.608 -7.89379e-007 1.71256e-006 0.106468 -19.4854 68.834 20.2555 8.16695 25.7823 -2.74501 -173.729 0.736361 0.187263 -1.0752e-005 -1.98656e-005 -1.16291 -1.71513 -9.97452 0.1419 -6.63714e-007 -6.38419e-006 -0.246609 21.2085 70.6574 -22.0638 -8.14275 25.3713 3.30173 
49.3659 95.6227 13.1046 -1.08898 -1.41648 0.784226 0.368724 -1.81457 -0.015473 0.73935 0.373332 -0.0737279 0.740567 2.01833 -0.0861062 0.765907 18.5431 -1.60535 0.0524734 2.65319 -1.371 72.6939 2.38124 -0.541399 103.44 16.2191 22.1196 -1.37935e-005 6.03192e-009 -4.16964e-007 2.81481 0.991052 -0.0308973 -6.96439e-006 -8.15935e-007 -3 8.02991 -4.95139 0.697651 -69.9795 1.38171 0.657885 -109.693 15.6681 -19.8848 1.51368e-006 3.40017e-006 7.37527e-006 -0.244848 2.80765 -0.435258 6.10999e-006 -1.47028e-006 3 -8.03023 -4.95138 -0.697655 176.683 -1.8188 -2.18931 180 7.01529e-015 178.846 177.354 6.45868 179.608 -7.89379e-007 1.71256e-006 0.108723 -19.5261 68.8821 20.2995 8.16682 25.7804 -2.74754 -173.745 0.82588 0.207137 -1.0752e-005 -1.98656e-005 -1.16298 -1.69551 -10.0901 0.144551 -6.63714e-007 -6.38419e-006 -0.249649 21.2488 70.6961 -22.1076 -8.14292 25.3739 3.29836 
49.3602 95.6195 13.0915 -1.08388 -1.39588 0.777917 0.368089 -1.81585 -0.0170731 0.736988 0.370765 -0.0775449 0.738218 2.01576 -0.089889 0.763192 18.562 -1.60161 0.0522656 2.62481 -1.36767 72.7068 2.39513 -0.536777 103.427 16.2282 22.1269 -1.37935e-005 6.03192e-009 -4.16964e-007 2.80813 0.978789 -0.0301587 -6.96439e-006 -8.15935e-007 -3 8.02991 -4.95139 0.697651 -69.9775 1.37265 0.662032 -109.694 15.6584 -19.8737 1.51368e-006 3.40017e-006 7.37527e-006 -0.259623 2.79932 -0.434564 6.10999e-006 -1.47028e-006 3 -8.03023 -4.95138 -0.697655 176.674 -1.73294 -2.17808 180 7.01529e-015 178.846 177.348 6.57243 179.609 -7.89379e-007 1.71256e-006 0.111076 -19.5675 68.9309 20.3443 8.1667 25.7787 -2.74987 -173.762 0.916861 0.225837 -1.0752e-005 -1.98656e-005 -1.16302 -1.67694 -10.207 0.147101 -6.63714e-007 -6.38419e-006 -0.252717 21.2892 70.7349 -22.1514 -8.1431 25.3765 3.29482 
49.3602 95.616 13.0879 -1.07887 -1.37446 0.772151 0.367429 -1.81696 -0.0186508 0.734639 0.368528 -0.0813056 0.735885 2.01352 -0.0936154 0.761942 18.5776 -1.59828 0.050643 2.59753 -1.36447 72.7194 2.40762 -0.532754 103.415 16.2376 22.1327 -1.37935e-005 6.03192e-009 -4.16964e-007 2.80246 0.968318 -0.0295373 -6.96439e-006 -8.15935e-007 -3 8.02991 -4.95139 0.697651 -69.9733 1.36419 0.665611 -109.698 15.6482 -19.8617 1.51368e-006 3.40017e-006 7.37527e-006 -0.274162 2.79345 -0.433863 6.10999e-006 -1.47028e-006 3 -8.03023 -4.95138 -0.697655 176.665 -1.64391 -2.16654 180 7.01529e-015 178.846 177.342 6.68997 179.609 -7.89379e-007 1.71256e-006 0.113553 -19.6099 68.9806 20.3901 8.16659 25.7771 -2.75194 -173.777 1.0097 0.243044 -1.0752e-005 -1.98656e-005 -1.16303 -1.65972 -10.3256 0.149521 -6.63714e-007 -6.38419e-006 -0.255822 21.3297 70.7737 -22.1954 -8.14329 25.3794 3.29108 
